<svg xmlns="http://www.w3.org/2000/svg" viewBox="0 0 260 260" fill="none">
  <defs>
    <linearGradient id="hair" x1="130" y1="10" x2="130" y2="140" gradientUnits="userSpaceOnUse">
      <stop offset="0%" stop-color="#ff8b94" />
      <stop offset="100%" stop-color="#ff5f7a" />
    </linearGradient>
    <linearGradient id="skin" x1="130" y1="80" x2="130" y2="180" gradientUnits="userSpaceOnUse">
      <stop offset="0%" stop-color="#ffddc1" />
      <stop offset="100%" stop-color="#ffbf9b" />
    </linearGradient>
  </defs>
  <rect width="260" height="260" rx="32" fill="#f8f4ee" />
  <circle cx="130" cy="90" r="55" fill="url(#skin)" />
  <path d="M72 106c0 34 28 62 58 62s58-28 58-62c0-35-16-60-35-70-5-3-15-9-23-9-8 0-18 6-23 9-19 10-35 35-35 70Z" fill="url(#hair)" />
  <path d="M106 90c0 13 10 23 24 23s24-10 24-23-10-23-24-23-24 10-24 23Z" fill="#fff" opacity="0.6" />
  <path d="M134 118c-7 0-13 6-13 13s6 13 13 13 13-6 13-13-6-13-13-13Z" fill="#d48b6d" />
  <path d="M96 130c-6 0-10 5-10 11s4 11 10 11 10-5 10-11-4-11-10-11Z" fill="#fff" opacity="0.8" />
  <path d="M164 130c-6 0-10 5-10 11s4 11 10 11 10-5 10-11-4-11-10-11Z" fill="#fff" opacity="0.8" />
  <path d="M110 160c0 14 20 22 30 22s30-8 30-22v-8H110v8Z" fill="#d48b6d" />
  <circle cx="66" cy="196" r="36" fill="#fed7c3" />
  <circle cx="194" cy="196" r="36" fill="#fed7c3" />
  <path d="M84 198c22 18 58 20 92 0" stroke="#ff8b94" stroke-width="12" stroke-linecap="round" />
</svg>
